# xmcd
#
# Track frame offsets:
#	182
#	13027
#	25767
#	38187
#	53362
#	67052
#	78685
#	93860
#	110285
#	127310
#
# Disc length: 1882 seconds
#
# Revision: 1
# Processed by: cddbd v1.4PL0 Copyright (c) Steve Scherf et al.
# Submitted via: audiograbber 1.80
#
DISCID=7d07580a
DTITLE=Various Artist - Super Hats
DYEAR=1900
DGENRE=
TTITLE0=John Michael Montgomery - Be My Baby Tonight
TTITLE1=Clay Walker - Live Until I Die
TTITLE2=Daryle Singletary - Too Much Fun
TTITLE3=Neal McCoy - For A Chance
TTITLE4=Michael Peterson - Drink, Swear, Steal and Lie
TTITLE5=Dwight Yoakam - It Only Hurts When I Cry
TTITLE6=Paul Brandt - My Heart Has A History
TTITLE7=David Ball - Watching My Baby Not Coming Back
TTITLE8=Chad Brock - Lightning Does The Work
TTITLE9=John Anderson - Swingin'
EXTD=
EXTT0=
EXTT1=
EXTT2=
EXTT3=
EXTT4=
EXTT5=
EXTT6=
EXTT7=
EXTT8=
EXTT9=
PLAYORDER=
